<svg width="32" height="32" viewBox="0 0 32 32" fill="none" xmlns="http://www.w3.org/2000/svg">
<rect width="32" height="32" rx="4" fill="#D9D9D9"/>
<path d="M27 6.99998C26.0424 7.67546 24.9821 8.19209 23.86 8.52999C23.2577 7.8375 22.4573 7.34668 21.567 7.12391C20.6767 6.90115 19.7395 6.95718 18.8821 7.28444C18.0247 7.6117 17.2884 8.19439 16.773 8.9537C16.2575 9.71302 15.9877 10.6123 16 11.53V12.53C14.2426 12.5756 12.5013 12.1858 10.931 11.3954C9.36074 10.6051 8.01032 9.43862 7 7.99998C7 7.99998 3 17 12 21C9.94053 22.398 7.48716 23.0989 5 23C14 28 25 23 25 11.5C24.9991 11.2214 24.9723 10.9436 24.92 10.67C25.9406 9.66348 26.6608 8.3927 27 6.99998Z" stroke="#093D41" stroke-width="2" stroke-linecap="round" stroke-linejoin="round"/>
</svg>
